# xmcd
#
# Track frame offsets:
#	150
#	21180
#	36568
#	56658
#	74100
#	91470
#	107316
#	120940
#	136683
#	148762
#	166135
#	181333
#	202454
#	217671
#	234731
#	248346
#	267307
#	283395
#	297571
#	314195
#
# Disc length: 4393 seconds
#
# Revision: 1
# Processed by: cddbd v1.5.2PL0 Copyright (c) Steve Scherf et al.
# Submitted via: audiograbber 1.82.02
#
DISCID=3d112714
DTITLE=Various Artist - Rural Aid Appeal 2006 Vol 37
DYEAR=2007
DGENRE=Country
TTITLE0=Lee Kernaghan - Close As A Whisper
TTITLE1=Carter and Carter - Best Things In Life Are Free
TTITLE2=Travis Collins - I Was Wrong
TTITLE3=Borderers - My Mother, My Angel Of Life
TTITLE4=Last Supperteers - A Girl Of The Land
TTITLE5=Donna Boyd - I Know It's You
TTITLE6=Pigs - Crazy
TTITLE7=Tom Curtain - Chew Like Hell
TTITLE8=Joni Harms - Friends
TTITLE9=Amber Lawrence - Gonna Fly
TTITLE10=Dean Perrett - Channel Country Ringer
TTITLE11=Kirsty Lee Akers - It Gets To Me
TTITLE12=Paul Costa - I'm Bringin Home Good News
TTITLE13=Simply Bushed - Cangal Bridge
TTITLE14=Petter Pratt - Sons Of The Snowy
TTITLE15=Markus Meier - Matilda Road
TTITLE16=Strum - The Southerly
TTITLE17=Phil Davidson - Suzanne
TTITLE18=Sheepdogs - Wild Bill Jones
TTITLE19=Greg Bain - Can I Sing Trumby
EXTD=
EXTT0=
EXTT1=
EXTT2=
EXTT3=
EXTT4=
EXTT5=
EXTT6=
EXTT7=
EXTT8=
EXTT9=
EXTT10=
EXTT11=
EXTT12=
EXTT13=
EXTT14=
EXTT15=
EXTT16=
EXTT17=
EXTT18=
EXTT19=
PLAYORDER=
